<?xml version="1.0" standalone="yes"?>

<svg version="1.1" viewBox="0.0 0.0 575.5879265091863 417.2257217847769" fill="none" stroke="none" stroke-linecap="square" stroke-miterlimit="10" xmlns="http://www.w3.org/2000/svg" xmlns:xlink="http://www.w3.org/1999/xlink"><clipPath id="p.0"><path d="m0 0l575.58795 0l0 417.2257l-575.58795 0l0 -417.2257z" clip-rule="nonzero"></path></clipPath><g clip-path="url(#p.0)"><path fill="#000000" fill-opacity="0.0" d="m0 0l575.58795 0l0 417.2257l-575.58795 0z" fill-rule="nonzero"></path><path fill="#000000" fill-opacity="0.0" d="m16.771654 10.472441l170.55118 0l0 121.70079l-170.55118 0z" fill-rule="nonzero"></path><path fill="#000000" d="m29.59978 73.49119l35.46875 -19.765625q0.859375 -0.46875 1.296875 -0.46875q0.65625 0 1.140625 0.5q0.5 0.484375 0.5 1.140625q0 0.984375 -1.328125 1.71875l-30.390625 16.875l30.34375 16.875q1.328125 0.75 1.328125 1.71875q0 0.671875 -0.484375 1.15625q-0.484375 0.484375 -1.15625 0.484375q-0.421875 0 -1.28125 -0.46875l-35.4375 -19.765625zm55.820312 -11.046875l0 5.96875q2.9375 -3.546875 6.296875 -5.34375q3.359375 -1.796875 7.921875 -1.796875q4.84375 0 8.9375 2.265625q4.109375 2.265625 6.359375 6.3125q2.25 4.03125 2.25 8.484375q0 7.078125 -5.0625 12.09375q-5.0625 5.015625 -12.4375 5.015625q-8.796875 0 -14.265625 -7.140625l0 19.765625l7.96875 0q1.171875 0 1.671875 0.453125q0.515625 0.453125 0.515625 1.1875q0 0.703125 -0.515625 1.171875q-0.5 0.46875 -1.671875 0.46875l-15.65625 0q-1.171875 0 -1.6875 -0.453125q-0.5 -0.4375 -0.5 -1.1875q0 -0.734375 0.5 -1.1875q0.515625 -0.453125 1.6875 -0.453125l4.40625 0l0 -42.3125l-4.40625 0q-1.171875 0 -1.6875 -0.46875q-0.5 -0.46875 -0.5 -1.203125q0 -0.703125 0.5 -1.171875q0.515625 -0.46875 1.6875 -0.46875l7.6875 0zm28.4375 15.890625q0 -5.65625 -4.125 -9.703125q-4.109375 -4.046875 -10.046875 -4.046875q-5.984375 0 -10.125 4.0625q-4.140625 4.0625 -4.140625 9.6875q0 5.671875 4.140625 9.734375q4.140625 4.0625 10.125 4.0625q5.890625 0 10.03125 -4.046875q4.140625 -4.046875 4.140625 -9.75zm52.117188 -4.84375l-35.46875 19.765625q-0.859375 0.46875 -1.296875 0.46875q-0.65625 0 -1.15625 -0.484375q-0.484375 -0.484375 -0.484375 -1.15625q0 -0.96875 1.328125 -1.71875l30.390625 -16.875l-30.34375 -16.875q-1.328125 -0.734375 -1.328125 -1.71875q0 -0.65625 0.484375 -1.140625q0.484375 -0.5 1.15625 -0.5q0.421875 0 1.28125 0.46875l35.4375 19.765625z" fill-rule="nonzero"></path><path fill="#000000" fill-opacity="0.0" d="m12.443569 292.6614l429.25983 0l0 135.18112l-429.25983 0z" fill-rule="nonzero"></path><path fill="#000000" d="m24.50607 344.88266l28.375 -15.8125q0.6875 -0.375 1.03125 -0.375q0.53125 0 0.921875 0.390625q0.390625 0.390625 0.390625 0.921875q0 0.78125 -1.0625 1.375l-24.3125 13.5l24.28125 13.5q1.0625 0.59375 1.0625 1.375q0 0.53125 -0.390625 0.921875q-0.390625 0.390625 -0.921875 0.390625q-0.34375 0 -1.03125 -0.375l-28.34375 -15.8125zm56.843754 18.21875l-4.4375 0l-10.78125 -24.40625l-2.6875038 0q-0.9375 0 -1.34375 -0.375q-0.40625 -0.375 -0.40625 -0.96875q0 -0.5625 0.40625 -0.9375q0.40625 -0.375 1.34375 -0.375l9.843754 0q0.9375 0 1.34375 0.375q0.40625 0.375 0.40625 0.96875q0 0.5625 -0.40625 0.9375q-0.40625 0.375 -1.34375 0.375l-4.34375 0l9.625 21.78125l1.15625 0l9.4375 -21.78125l-4.375 0q-0.9375 0 -1.34375 -0.375q-0.40625 -0.375 -0.40625 -0.96875q0 -0.5625 0.40625 -0.9375q0.40625 -0.375 1.34375 -0.375l9.875 0q0.96875 0 1.359375 0.375q0.390625 0.375 0.390625 0.96875q0 0.5625 -0.390625 0.9375q-0.390625 0.375 -1.359375 0.375l-2.65625 0l-10.65625 24.40625zm37.40625 -40.53125l0 6.78125l-3.875 0l0 -6.78125l3.875 0zm0.09375 13.46875l0 24.4375l10.3125 0q0.96875 0 1.375 0.359375q0.40625 0.359375 0.40625 0.953125q0 0.5625 -0.40625 0.9375q-0.40625 0.375 -1.375 0.375l-23.25 0q-0.9375 0 -1.34375 -0.375q-0.40625 -0.375 -0.40625 -0.9375q0 -0.59375 0.40625 -0.953125q0.40625 -0.359375 1.34375 -0.359375l10.3125 0l0 -21.78125l-7.65625 0q-0.9375 0 -1.359375 -0.375q-0.421875 -0.375 -0.421875 -0.9375q0 -0.59375 0.40625 -0.96875q0.40625 -0.375 1.375 -0.375l10.28125 0zm49.875 -12.15625l0 36.59375l3.5 0q0.96875 0 1.375 0.359375q0.40625 0.359375 0.40625 0.953125q0 0.5625 -0.40625 0.9375q-0.40625 0.375 -1.375 0.375l-6.15625 0l0 -5.21875q-4.5625 6.25 -11.59375 6.25q-3.5625 0 -6.828125 -1.890625q-3.265625 -1.890625 -5.15625 -5.390625q-1.890625 -3.5 -1.890625 -7.21875q0 -3.75 1.890625 -7.234375q1.890625 -3.484375 5.15625 -5.390625q3.265625 -1.90625 6.859375 -1.90625q6.875 0 11.5625 6.25l0 -14.8125l-3.5 0q-0.96875 0 -1.375 -0.375q-0.40625 -0.375 -0.40625 -0.96875q0 -0.5625 0.40625 -0.9375q0.40625 -0.375 1.375 -0.375l6.15625 0zm-2.65625 25.75q0 -5.0 -3.375 -8.4375q-3.375 -3.4375 -8.03125 -3.4375q-4.6875 0 -8.0625 3.4375q-3.375 3.4375 -3.375 8.4375q0 4.96875 3.375 8.421875q3.375 3.453125 8.0625 3.453125q4.65625 0 8.03125 -3.453125q3.375 -3.453125 3.375 -8.421875zm42.40625 0.5625l-26.75 0q0.6875 5.09375 4.265625 8.203125q3.578125 3.109375 8.859375 3.109375q2.9375 0 6.15625 -0.96875q3.21875 -0.96875 5.25 -2.5625q0.59375 -0.46875 1.03125 -0.46875q0.5 0 0.875 0.390625q0.375 0.390625 0.375 0.921875q0 0.53125 -0.5 1.03125q-1.5 1.5625 -5.328125 2.921875q-3.828125 1.359375 -7.859375 1.359375q-6.75 0 -11.265625 -4.421875q-4.515625 -4.421875 -4.515625 -10.703125q0 -5.71875 4.234375 -9.8125q4.234375 -4.09375 10.484375 -4.09375q6.4375 0 10.59375 4.203125q4.15625 4.203125 4.09375 10.890625zm-2.65625 -2.65625q-0.78125 -4.34375 -4.109375 -7.0625q-3.328125 -2.71875 -7.921875 -2.71875q-4.59375 0 -7.90625 2.6875q-3.3125 2.6875 -4.125 7.09375l24.0625 0zm41.53125 2.09375q0 6.0 -4.296875 10.25q-4.296875 4.25 -10.359375 4.25q-6.125 0 -10.40625 -4.265625q-4.28125 -4.265625 -4.28125 -10.234375q0 -6.0 4.28125 -10.265625q4.28125 -4.265625 10.40625 -4.265625q6.0625 0 10.359375 4.25q4.296875 4.25 4.296875 10.28125zm-2.65625 0q0 -4.9375 -3.515625 -8.40625q-3.515625 -3.46875 -8.515625 -3.46875q-5.0 0 -8.515625 3.484375q-3.515625 3.484375 -3.515625 8.390625q0 4.875 3.515625 8.375q3.515625 3.5 8.515625 3.5q5.0 0 8.515625 -3.484375q3.515625 -3.484375 3.515625 -8.390625zm42.53125 -4.75l-28.375 15.8125q-0.6875 0.375 -1.03125 0.375q-0.53125 0 -0.921875 -0.390625q-0.390625 -0.390625 -0.390625 -0.921875q0 -0.78125 1.0625 -1.375l24.3125 -13.5l-24.28125 -13.5q-1.0625 -0.59375 -1.0625 -1.375q0 -0.53125 0.390625 -0.921875q0.390625 -0.390625 0.921875 -0.390625q0.34375 0 1.03125 0.375l28.34375 15.8125z" fill-rule="nonzero"></path><path fill="#000000" fill-opacity="0.0" d="m119.01837 79.24147l419.1181 0l0 166.51968l-419.1181 0z" fill-rule="nonzero"></path><path fill="#000000" d="m134.14337 174.68398l56.75 -31.625q1.375 -0.75 2.0625 -0.75q1.0625 0 1.84375 0.78125q0.78125 0.78125 0.78125 1.84375q0 1.5625 -2.125 2.75l-48.625 27.0l48.5625 27.0q2.125 1.1875 2.125 2.75q0 1.0625 -0.78125 1.84375q-0.78125 0.78125 -1.84375 0.78125q-0.6875 0 -2.0625 -0.75l-56.6875 -31.625zm111.6875 -44.625l0 13.5625l-7.75 0l0 -13.5625l7.75 0zm0.1875 26.9375l0 48.875l20.625 0q1.9375 0 2.75 0.71875q0.8125 0.71875 0.8125 1.90625q0 1.125 -0.8125 1.875q-0.8125 0.75 -2.75 0.75l-46.5 0q-1.875 0 -2.6875 -0.75q-0.8125 -0.75 -0.8125 -1.875q0 -1.1875 0.8125 -1.90625q0.8125 -0.71875 2.6875 -0.71875l20.625 0l0 -43.5625l-15.3125 0q-1.875 0 -2.71875 -0.75q-0.84375 -0.75 -0.84375 -1.875q0 -1.1875 0.8125 -1.9375q0.8125 -0.75 2.75 -0.75l20.5625 0zm50.125 0l0 5.3125q6.6875 -7.1875 13.4375 -7.1875q4.0625 0 7.125 2.15625q3.0625 2.15625 5.125 6.53125q3.5 -4.375 7.09375 -6.53125q3.59375 -2.15625 7.21875 -2.15625q5.6875 0 9.0625 3.6875q4.4375 4.75 4.4375 10.375l0 36.6875l4.4375 0q1.875 0 2.6875 0.71875q0.8125 0.71875 0.8125 1.90625q0 1.125 -0.8125 1.875q-0.8125 0.75 -2.6875 0.75l-9.6875 0l0 -41.4375q0 -4.0 -2.4375 -6.625q-2.4375 -2.625 -5.625 -2.625q-2.875 0 -6.0625 2.15625q-3.1875 2.15625 -7.25 8.46875l0 34.8125l4.375 0q1.875 0 2.6875 0.71875q0.8125 0.71875 0.8125 1.90625q0 1.125 -0.8125 1.875q-0.8125 0.75 -2.6875 0.75l-9.6875 0l0 -41.0625q0 -4.1875 -2.46875 -6.90625q-2.46875 -2.71875 -5.53125 -2.71875q-2.8125 0 -5.5625 1.8125q-3.8125 2.5625 -8.0 8.8125l0 34.8125l4.4375 0q1.875 0 2.6875 0.71875q0.8125 0.71875 0.8125 1.90625q0 1.125 -0.8125 1.875q-0.8125 0.75 -2.6875 0.75l-14.125 0q-1.875 0 -2.6875 -0.75q-0.8125 -0.75 -0.8125 -1.875q0 -1.1875 0.8125 -1.90625q0.8125 -0.71875 2.6875 -0.71875l4.4375 0l0 -43.5625l-4.4375 0q-1.875 0 -2.6875 -0.75q-0.8125 -0.75 -0.8125 -1.9375q0 -1.125 0.8125 -1.875q0.8125 -0.75 2.6875 -0.75l9.6875 0zm118.375 9.625l0 -9.625l12.3125 0q1.875 0 2.6875 0.75q0.8125 0.75 0.8125 1.9375q0 1.125 -0.8125 1.875q-0.8125 0.75 -2.6875 0.75l-7.0625 0l0 52.4375q0 5.25 -2.25 9.375q-1.5 2.75 -5.0 5.6875q-3.5 2.9375 -6.375 4.1875q-2.875 1.25 -7.6875 1.25l-14.875 0q-1.875 0 -2.6875 -0.71875q-0.8125 -0.71875 -0.8125 -1.90625q0 -1.1875 0.8125 -1.9375q0.8125 -0.75 2.6875 -0.75l15.0625 0.0625q4.625 0 8.34375 -2.375q3.71875 -2.375 6.15625 -6.9375q1.375 -2.625 1.375 -6.6875l0 -15.75q-8.4375 11.5625 -21.75 11.5625q-10.8125 0 -18.65625 -8.03125q-7.84375 -8.03125 -7.84375 -19.34375q0 -11.3125 7.84375 -19.3125q7.84375 -8.0 18.65625 -8.0q13.3125 0 21.75 11.5zm0 15.8125q0 -9.25 -6.34375 -15.625q-6.34375 -6.375 -15.15625 -6.375q-8.8125 0 -15.125 6.40625q-6.3125 6.40625 -6.3125 15.59375q0 9.25 6.3125 15.65625q6.3125 6.40625 15.125 6.40625q8.8125 0 15.15625 -6.40625q6.34375 -6.40625 6.34375 -15.65625zm91.4375 -7.75l-56.75 31.625q-1.375 0.75 -2.0625 0.75q-1.0625 0 -1.84375 -0.78125q-0.78125 -0.78125 -0.78125 -1.84375q0 -1.5625 2.125 -2.75l48.625 -27.0l-48.5625 -27.0q-2.125 -1.1875 -2.125 -2.75q0 -1.0625 0.78125 -1.84375q0.78125 -0.78125 1.84375 -0.78125q0.6875 0 2.0625 0.75l56.6875 31.625z" fill-rule="nonzero"></path><path fill="#000000" fill-opacity="0.0" d="m277.64304 10.472441l293.66928 0l0 98.519684l-293.66928 0z" fill-rule="nonzero"></path><path fill="#000000" d="m289.70554 62.693695l28.375 -15.8125q0.6875 -0.375 1.03125 -0.375q0.53125 0 0.921875 0.390625q0.390625 0.390625 0.390625 0.921875q0 0.78125 -1.0625 1.375l-24.3125 13.5l24.28125 13.5q1.0625 0.59375 1.0625 1.375q0 0.53125 -0.390625 0.921875q-0.390625 0.390625 -0.921875 0.390625q-0.34375 0 -1.03125 -0.375l-28.34375 -15.8125zm62.09375 18.21875l0 -3.78125q-5.71875 4.8125 -12.21875 4.8125q-4.71875 0 -7.375 -2.390625q-2.65625 -2.390625 -2.65625 -5.859375q0 -3.8125 3.5 -6.65625q3.5 -2.84375 10.21875 -2.84375q1.8125 0 3.9375 0.234375q2.125 0.234375 4.59375 0.734375l0 -4.25q0 -2.15625 -2.0 -3.75q-2.0 -1.59375 -6.0 -1.59375q-3.0625 0 -8.59375 1.78125q-1.0 0.3125 -1.28125 0.3125q-0.5 0 -0.859375 -0.375q-0.359375 -0.375 -0.359375 -0.9375q0 -0.53125 0.3125 -0.84375q0.4375 -0.46875 3.53125 -1.28125q4.875 -1.3125 7.375 -1.3125q4.96875 0 7.75 2.453125q2.78125 2.453125 2.78125 5.546875l0 17.375l3.5 0q0.96875 0 1.375 0.359375q0.40625 0.359375 0.40625 0.953125q0 0.5625 -0.40625 0.9375q-0.40625 0.375 -1.375 0.375l-6.15625 0zm0 -13.0625q-1.84375 -0.53125 -3.90625 -0.78125q-2.0625 -0.25 -4.34375 -0.25q-5.71875 0 -8.9375 2.46875q-2.4375 1.84375 -2.4375 4.40625q0 2.375 1.859375 4.0q1.859375 1.625 5.421875 1.625q3.40625 0 6.328125 -1.359375q2.921875 -1.359375 6.015625 -4.328125l0 -5.78125zm39.84375 13.0625l0 -3.84375q-5.375 4.875 -11.625 4.875q-3.84375 0 -5.84375 -2.09375q-2.59375 -2.75 -2.59375 -6.40625l0 -16.9375l-3.53125 0q-0.9375 0 -1.34375 -0.375q-0.40625 -0.375 -0.40625 -0.96875q0 -0.5625 0.40625 -0.9375q0.40625 -0.375 1.34375 -0.375l6.15625 0l0 19.59375q0 2.5625 1.625 4.21875q1.625 1.65625 4.0625 1.65625q6.40625 0 11.75 -5.875l0 -16.9375l-4.84375 0q-0.9375 0 -1.34375 -0.375q-0.40625 -0.375 -0.40625 -0.96875q0 -0.5625 0.40625 -0.9375q0.40625 -0.375 1.34375 -0.375l7.46875 0l0 24.4375l2.21875 0q0.9375 0 1.34375 0.359375q0.40625 0.359375 0.40625 0.953125q0 0.5625 -0.40625 0.9375q-0.40625 0.375 -1.34375 0.375l-4.84375 0zm42.28125 -39.21875l0 36.59375l3.5 0q0.96875 0 1.375 0.359375q0.40625 0.359375 0.40625 0.953125q0 0.5625 -0.40625 0.9375q-0.40625 0.375 -1.375 0.375l-6.15625 0l0 -5.21875q-4.5625 6.25 -11.59375 6.25q-3.5625 0 -6.828125 -1.890625q-3.265625 -1.890625 -5.15625 -5.390625q-1.890625 -3.5 -1.890625 -7.21875q0 -3.75 1.890625 -7.234375q1.890625 -3.484375 5.15625 -5.390625q3.265625 -1.90625 6.859375 -1.90625q6.875 0 11.5625 6.25l0 -14.8125l-3.5 0q-0.96875 0 -1.375 -0.375q-0.40625 -0.375 -0.40625 -0.96875q0 -0.5625 0.40625 -0.9375q0.40625 -0.375 1.375 -0.375l6.15625 0zm-2.65625 25.75q0 -5.0 -3.375 -8.4375q-3.375 -3.4375 -8.03125 -3.4375q-4.6875 0 -8.0625 3.4375q-3.375 3.4375 -3.375 8.4375q0 4.96875 3.375 8.421875q3.375 3.453125 8.0625 3.453125q4.65625 0 8.03125 -3.453125q3.375 -3.453125 3.375 -8.421875zm29.5 -27.0625l0 6.78125l-3.875 0l0 -6.78125l3.875 0zm0.09375 13.46875l0 24.4375l10.3125 0q0.96875 0 1.375 0.359375q0.40625 0.359375 0.40625 0.953125q0 0.5625 -0.40625 0.9375q-0.40625 0.375 -1.375 0.375l-23.25 0q-0.9375 0 -1.34375 -0.375q-0.40625 -0.375 -0.40625 -0.9375q0 -0.59375 0.40625 -0.953125q0.40625 -0.359375 1.34375 -0.359375l10.3125 0l0 -21.78125l-7.65625 0q-0.9375 0 -1.359375 -0.375q-0.421875 -0.375 -0.421875 -0.9375q0 -0.59375 0.40625 -0.96875q0.40625 -0.375 1.375 -0.375l10.28125 0zm51.68753 13.59375q0 6.0 -4.2969055 10.25q-4.296875 4.25 -10.359375 4.25q-6.125 0 -10.40625 -4.265625q-4.28125 -4.265625 -4.28125 -10.234375q0 -6.0 4.28125 -10.265625q4.28125 -4.265625 10.40625 -4.265625q6.0625 0 10.359375 4.25q4.2969055 4.25 4.2969055 10.28125zm-2.6562805 0q0 -4.9375 -3.515625 -8.40625q-3.515625 -3.46875 -8.515625 -3.46875q-5.0 0 -8.515625 3.484375q-3.515625 3.484375 -3.515625 8.390625q0 4.875 3.515625 8.375q3.515625 3.5 8.515625 3.5q5.0 0 8.515625 -3.484375q3.515625 -3.484375 3.515625 -8.390625zm42.53128 -4.75l-28.375 15.8125q-0.6875 0.375 -1.03125 0.375q-0.53125 0 -0.921875 -0.390625q-0.390625 -0.390625 -0.390625 -0.921875q0 -0.78125 1.0625 -1.375l24.3125 -13.5l-24.28125 -13.5q-1.0625 -0.59375 -1.0625 -1.375q0 -0.53125 0.390625 -0.921875q0.390625 -0.390625 0.921875 -0.390625q0.34375 0 1.03125 0.375l28.34375 15.8125z" fill-rule="nonzero"></path><path fill="#000000" fill-opacity="0.0" d="m429.1601 231.61417l170.55121 0l0 121.700806l-170.55121 0z" fill-rule="nonzero"></path><path fill="#000000" d="m440.08197 267.62354l17.734375 -9.875q0.421875 -0.234375 0.640625 -0.234375q0.328125 0 0.5625 0.25q0.25 0.234375 0.25 0.5625q0 0.484375 -0.65625 0.859375l-15.203125 8.4375l15.1875 8.4375q0.65625 0.375 0.65625 0.859375q0 0.328125 -0.25 0.578125q-0.234375 0.25 -0.5625 0.25q-0.21875 0 -0.65625 -0.234375l-17.703125 -9.890625zm27.910156 -13.124985l0 10.874985q2.96875 -3.859375 7.15625 -3.859375q3.59375 0 6.15625 2.609375q2.5625 2.609375 2.5625 6.390625q0 3.828125 -2.59375 6.484375q-2.578125 2.65625 -6.125 2.65625q-4.296875 0 -7.15625 -3.859375l0 3.21875l-3.859375 0q-0.578125 0 -0.84375 -0.234375q-0.25 -0.234375 -0.25 -0.59375q0 -0.359375 0.25 -0.578125q0.265625 -0.234375 0.84375 -0.234375l2.21875 0l0 -21.21875l-2.21875 0q-0.578125 0 -0.84375 -0.23435974q-0.25 -0.234375 -0.25 -0.59375q0 -0.359375 0.25 -0.59375q0.265625 -0.234375 0.84375 -0.234375l3.859375 0zm14.234375 16.093735q0 -3.109375 -2.140625 -5.265625q-2.125 -2.15625 -4.96875 -2.15625q-2.859375 0 -4.984375 2.15625q-2.125 2.15625 -2.125 5.265625q0 3.109375 2.125 5.265625q2.125 2.15625 4.984375 2.15625q2.84375 0 4.96875 -2.15625q2.140625 -2.15625 2.140625 -5.265625zm13.988281 -8.5l0 4.140625q3.203125 -2.890625 4.78125 -3.71875q1.59375 -0.828125 2.953125 -0.828125q1.453125 0 2.71875 0.984375q1.265625 0.984375 1.265625 1.5q0 0.375 -0.25 0.625q-0.25 0.234375 -0.609375 0.234375q-0.203125 0 -0.34375 -0.0625q-0.125 -0.078125 -0.5 -0.453125q-0.6875 -0.671875 -1.203125 -0.921875q-0.5 -0.265625 -0.984375 -0.265625q-1.078125 0 -2.59375 0.859375q-1.515625 0.859375 -5.234375 4.203125l0 8.984375l7.265625 0q0.59375 0 0.84375 0.234375q0.265625 0.21875 0.265625 0.578125q0 0.359375 -0.265625 0.59375q-0.25 0.234375 -0.84375 0.234375l-12.875 0q-0.59375 0 -0.84375 -0.21875q-0.25 -0.234375 -0.25 -0.578125q0 -0.34375 0.234375 -0.5625q0.25 -0.21875 0.859375 -0.21875l3.96875 0l0 -13.671875l-3.03125 0q-0.59375 0 -0.84375 -0.234375q-0.25 -0.234375 -0.25 -0.609375q0 -0.359375 0.234375 -0.59375q0.25 -0.234375 0.859375 -0.234375l4.671875 0zm36.05078 5.53125l-17.734375 9.890625q-0.4375 0.234375 -0.640625 0.234375q-0.34375 0 -0.59375 -0.25q-0.234375 -0.25 -0.234375 -0.578125q0 -0.484375 0.671875 -0.859375l15.1875 -8.4375l-15.171875 -8.4375q-0.671875 -0.375 -0.671875 -0.859375q0 -0.328125 0.25 -0.5625q0.25 -0.25 0.578125 -0.25q0.21875 0 0.640625 0.234375l17.71875 9.875z" fill-rule="nonzero"></path><path fill="#000000" fill-opacity="0.0" d="m12.443569 226.77953l170.55118 0l0 121.70079l-170.55118 0z" fill-rule="nonzero"></path><path fill="#000000" d="m23.365444 262.7889l17.734375 -9.875015q0.421875 -0.234375 0.640625 -0.234375q0.328125 0 0.5625 0.25q0.25 0.234375 0.25 0.5625q0 0.484375 -0.65625 0.859375l-15.203125 8.437515l15.1875 8.4375q0.65625 0.375 0.65625 0.859375q0 0.328125 -0.25 0.578125q-0.234375 0.25 -0.5625 0.25q-0.21875 0 -0.65625 -0.234375l-17.703125 -9.890625zm39.503906 -4.453125q0 -0.5625 0.234375 -0.8125q0.234375 -0.265625 0.59375 -0.265625q0.3593788 0 0.5937538 0.265625q0.234375 0.25 0.234375 0.859375l0 2.8125q0 0.578125 -0.234375 0.84375q-0.234375 0.25 -0.5937538 0.25q-0.34375 0 -0.5625 -0.21875q-0.21875 -0.21875 -0.265625 -0.703125q-0.109375 -1.171875 -1.203125 -1.9375q-1.609375 -1.09375 -4.25 -1.09375q-2.75 0 -4.265625 1.109375q-1.15625 0.84375 -1.15625 1.875q0 1.171875 1.359375 1.953125q0.9375 0.546875 3.5625 0.84375q3.421875 0.375 4.75 0.84375q1.890625 0.6875 2.8125038 1.90625q0.9375 1.203125 0.9375 2.609375q0 2.078125 -2.0156288 3.71875q-2.015625 1.625 -5.90625 1.625q-3.875 0 -6.359375 -1.96875q0 0.65625 -0.078125 0.859375q-0.078125 0.1875 -0.28125 0.328125q-0.203125 0.140625 -0.46875 0.140625q-0.34375 0 -0.578125 -0.25q-0.234375 -0.265625 -0.234375 -0.84375l0 -3.375q0 -0.59375 0.21875 -0.84375q0.234375 -0.25 0.59375 -0.25q0.359375 0 0.59375 0.25q0.25 0.234375 0.25 0.640625q0 0.90625 0.453125 1.5q0.6875 0.9375 2.171875 1.5625q1.5 0.609375 3.671875 0.609375q3.203125 0 4.765625 -1.1875q1.5625 -1.1875 1.5625 -2.515625q0 -1.53125 -1.59375 -2.453125q-1.59375 -0.90625 -4.65625 -1.21875q-3.046875 -0.3125 -4.375 -0.8125q-1.328125 -0.515625 -2.078125 -1.53125q-0.734375 -1.015625 -0.734375 -2.1875q0 -2.109375 2.0625 -3.34375q2.078125 -1.25 4.9375 -1.25q3.40625 0 5.53125 1.65625zm12.41016 -1.078125l0 3.0q1.453125 -1.78125 3.125 -2.671875q1.6875 -0.90625 3.984375 -0.90625q2.421875 0 4.46875 1.140625q2.046875 1.125 3.171875 3.15625q1.125 2.015625 1.125 4.234375q0 3.53125 -2.53125 6.046875q-2.53125 2.515625 -6.21875 2.515625q-4.390625 0 -7.125 -3.578125l0 9.890625l3.984375 0q0.578125 0 0.828125 0.21875q0.265625 0.21875 0.265625 0.59375q0 0.359375 -0.265625 0.59375q-0.25 0.234375 -0.828125 0.234375l-7.84375 0q-0.578125 0 -0.84375 -0.234375q-0.25 -0.21875 -0.25 -0.59375q0 -0.375 0.25 -0.59375q0.265625 -0.21875 0.84375 -0.21875l2.21875 0l0 -21.15625l-2.21875 0q-0.578125 0 -0.84375 -0.234375q-0.25 -0.234375 -0.25 -0.609375q0 -0.359375 0.25 -0.59375q0.265625 -0.234375 0.84375 -0.234375l3.859375 0zm14.21875 7.953125q0 -2.828125 -2.0625 -4.84375q-2.0625 -2.03125 -5.03125 -2.03125q-2.984375 0 -5.0625 2.03125q-2.0625 2.03125 -2.0625 4.84375q0 2.828125 2.0625 4.859375q2.078125 2.03125 5.0625 2.03125q2.953125 0 5.015625 -2.015625q2.078125 -2.015625 2.078125 -4.875zm20.675781 8.96875l0 -2.359375q-3.578125 3.0 -7.640625 3.0q-2.9375 0 -4.609375 -1.484375q-1.65625 -1.5 -1.65625 -3.671875q0 -2.375 2.1875 -4.15625q2.1875 -1.78125 6.390625 -1.78125q1.125 0 2.453125 0.15625q1.328125 0.140625 2.875 0.453125l0 -2.65625q0 -1.34375 -1.25 -2.34375q-1.25 -1.0 -3.75 -1.0q-1.90625 0 -5.375 1.109375q-0.625 0.203125 -0.796875 0.203125q-0.3125 0 -0.546875 -0.234375q-0.21875 -0.234375 -0.21875 -0.59375q0 -0.328125 0.203125 -0.515625q0.265625 -0.296875 2.203125 -0.8125q3.046875 -0.8125 4.609375 -0.8125q3.109375 0 4.84375 1.53125q1.734375 1.53125 1.734375 3.46875l0 10.859375l2.1875 0q0.609375 0 0.859375 0.234375q0.265625 0.21875 0.265625 0.578125q0 0.359375 -0.265625 0.59375q-0.25 0.234375 -0.859375 0.234375l-3.84375 0zm0 -8.171875q-1.15625 -0.328125 -2.453125 -0.484375q-1.28125 -0.15625 -2.703125 -0.15625q-3.578125 0 -5.578125 1.546875q-1.53125 1.15625 -1.53125 2.75q0 1.484375 1.15625 2.5q1.171875 1.015625 3.390625 1.015625q2.140625 0 3.953125 -0.84375q1.828125 -0.859375 3.765625 -2.703125l0 -3.625zm13.988281 -8.75l0 2.484375q1.71875 -1.734375 3.09375 -2.390625q1.390625 -0.671875 3.140625 -0.671875q1.875 0 3.40625 0.796875q1.09375 0.59375 1.984375 1.953125q0.890625 1.34375 0.890625 2.78125l0 10.328125l1.390625 0q0.578125 0 0.828125 0.234375q0.265625 0.21875 0.265625 0.578125q0 0.359375 -0.265625 0.59375q-0.25 0.234375 -0.828125 0.234375l-4.390625 0q-0.609375 0 -0.875 -0.234375q-0.25 -0.234375 -0.25 -0.59375q0 -0.359375 0.25 -0.578125q0.265625 -0.234375 0.875 -0.234375l1.359375 0l0 -10.0625q0 -1.734375 -1.265625 -2.9375q-1.265625 -1.203125 -3.40625 -1.203125q-1.609375 0 -2.8125 0.65625q-1.1875 0.65625 -3.390625 3.25l0 10.296875l1.859375 0q0.578125 0 0.828125 0.234375q0.265625 0.21875 0.265625 0.578125q0 0.359375 -0.265625 0.59375q-0.25 0.234375 -0.828125 0.234375l-5.359375 0q-0.578125 0 -0.84375 -0.234375q-0.25 -0.234375 -0.25 -0.59375q0 -0.359375 0.25 -0.578125q0.265625 -0.234375 0.84375 -0.234375l1.859375 0l0 -13.609375l-1.390625 0q-0.578125 0 -0.84375 -0.234375q-0.25 -0.234375 -0.25 -0.609375q0 -0.359375 0.25 -0.59375q0.265625 -0.234375 0.84375 -0.234375l3.03125 0zm39.39453 5.53125l-17.734375 9.890625q-0.4375 0.234375 -0.640625 0.234375q-0.34375 0 -0.59375 -0.25q-0.234375 -0.25 -0.234375 -0.578125q0 -0.484375 0.671875 -0.859375l15.1875 -8.4375l-15.171875 -8.437515q-0.671875 -0.375 -0.671875 -0.859375q0 -0.328125 0.25 -0.5625q0.25 -0.25 0.578125 -0.25q0.21875 0 0.640625 0.234375l17.71875 9.875015z" fill-rule="nonzero"></path><path fill="#000000" fill-opacity="0.0" d="m304.69028 264.2021l289.32285 0l0 121.700806l-289.32285 0z" fill-rule="nonzero"></path><path fill="#000000" d="m319.81528 359.6446l56.75 -31.625q1.375 -0.75 2.0625 -0.75q1.0625 0 1.84375 0.78125q0.78125 0.78125 0.78125 1.84375q0 1.5625 -2.125 2.75l-48.625 27.0l48.5625 27.0q2.125 1.1875 2.125 2.75q0 1.0625 -0.78125 1.84375q-0.78125 0.78125 -1.84375 0.78125q-0.6875 0 -2.0625 -0.75l-56.6875 -31.625zm124.1875 36.4375l0 -7.5625q-11.4375 9.625 -24.4375 9.625q-9.4375 0 -14.75 -4.78125q-5.3125 -4.78125 -5.3125 -11.71875q0 -7.625 7.0 -13.3125q7.0 -5.6875 20.4375 -5.6875q3.625 0 7.875 0.46875q4.25 0.46875 9.1875 1.46875l0 -8.5q0 -4.3125 -4.0 -7.5q-4.0 -3.1875 -12.0 -3.1875q-6.125 0 -17.1875 3.5625q-2.0 0.625 -2.5625 0.625q-1.0 0 -1.71875 -0.75q-0.71875 -0.75 -0.71875 -1.875q0 -1.0625 0.625 -1.6875q0.875 -0.9375 7.0625 -2.5625q9.75 -2.625 14.75 -2.625q9.9375 0 15.5 4.90625q5.5625 4.90625 5.5625 11.09375l0 34.75l7.0 0q1.9375 0 2.75 0.71875q0.8125 0.71875 0.8125 1.90625q0 1.125 -0.8125 1.875q-0.8125 0.75 -2.75 0.75l-12.3125 0zm0 -26.125q-3.6875 -1.0625 -7.8125 -1.5625q-4.125 -0.5 -8.6875 -0.5q-11.4375 0 -17.875 4.9375q-4.875 3.6875 -4.875 8.8125q0 4.75 3.71875 8.0q3.71875 3.25 10.84375 3.25q6.8125 0 12.65625 -2.71875q5.84375 -2.71875 12.03125 -8.65625l0 -11.5625zm94.00003 -10.3125l-56.75003 31.625q-1.375 0.75 -2.0625 0.75q-1.0625 0 -1.84375 -0.78125q-0.78125 -0.78125 -0.78125 -1.84375q0 -1.5625 2.125 -2.75l48.62503 -27.0l-48.56253 -27.0q-2.125 -1.1875 -2.125 -2.75q0 -1.0625 0.78125 -1.84375q0.78125 -0.78125 1.84375 -0.78125q0.6875 0 2.0625 0.75l56.68753 31.625z" fill-rule="nonzero"></path></g></svg>

