<?xml version="1.0" standalone="yes"?>

<svg version="1.1" viewBox="0.0 0.0 575.5879265091863 417.2257217847769" fill="none" stroke="none" stroke-linecap="square" stroke-miterlimit="10" xmlns="http://www.w3.org/2000/svg" xmlns:xlink="http://www.w3.org/1999/xlink"><clipPath id="p.0"><path d="m0 0l575.58795 0l0 417.2257l-575.58795 0l0 -417.2257z" clip-rule="nonzero"></path></clipPath><g clip-path="url(#p.0)"><path fill="#000000" fill-opacity="0.0" d="m0 0l575.58795 0l0 417.2257l-575.58795 0z" fill-rule="nonzero"></path><path fill="#000000" fill-opacity="0.0" d="m336.55905 277.55643l252.47244 0l0 121.700806l-252.47244 0z" fill-rule="nonzero"></path><path fill="#000000" d="m348.62155 329.77768l28.375 -15.8125q0.6875 -0.375 1.03125 -0.375q0.53125 0 0.921875 0.390625q0.390625 0.390625 0.390625 0.921875q0 0.78125 -1.0625 1.375l-24.3125 13.5l24.28125 13.5q1.0625 0.59375 1.0625 1.375q0 0.53125 -0.390625 0.921875q-0.390625 0.390625 -0.921875 0.390625q-0.34375 0 -1.03125 -0.375l-28.34375 -15.8125zm67.40625 -21.0l0 36.59375l3.5 0q0.96875 0 1.375 0.359375q0.40625 0.359375 0.40625 0.953125q0 0.5625 -0.40625 0.9375q-0.40625 0.375 -1.375 0.375l-6.15625 0l0 -5.21875q-4.5625 6.25 -11.59375 6.25q-3.5625 0 -6.828125 -1.890625q-3.265625 -1.890625 -5.15625 -5.390625q-1.890625 -3.5 -1.890625 -7.21875q0 -3.75 1.890625 -7.234375q1.890625 -3.484375 5.15625 -5.390625q3.265625 -1.90625 6.859375 -1.90625q6.875 0 11.5625 6.25l0 -14.8125l-3.5 0q-0.96875 0 -1.375 -0.375q-0.40625 -0.375 -0.40625 -0.96875q0 -0.5625 0.40625 -0.9375q0.40625 -0.375 1.375 -0.375l6.15625 0zm-2.65625 25.75q0 -5.0 -3.375 -8.4375q-3.375 -3.4375 -8.03125 -3.4375q-4.6875 0 -8.0625 3.4375q-3.375 3.4375 -3.375 8.4375q0 4.96875 3.375 8.421875q3.375 3.453125 8.0625 3.453125q4.65625 0 8.03125 -3.453125q3.375 -3.453125 3.375 -8.421875zm29.5 -27.0625l0 6.78125l-3.875 0l0 -6.78125l3.875 0zm0.09375 13.46875l0 24.4375l10.3125 0q0.96875 0 1.375 0.359375q0.40625 0.359375 0.40625 0.953125q0 0.5625 -0.40625 0.9375q-0.40625 0.375 -1.375 0.375l-23.25 0q-0.9375 0 -1.34375 -0.375q-0.40625 -0.375 -0.40625 -0.9375q0 -0.59375 0.40625 -0.953125q0.40625 -0.359375 1.34375 -0.359375l10.3125 0l0 -21.78125l-7.65625 0q-0.9375 0 -1.359375 -0.375q-0.421875 -0.375 -0.421875 -0.9375q0 -0.59375 0.40625 -0.96875q0.40625 -0.375 1.375 -0.375l10.28125 0zm39.3125 27.0625l-4.4375 0l-10.78125 -24.40625l-2.6875 0q-0.9375 0 -1.34375 -0.375q-0.40625 -0.375 -0.40625 -0.96875q0 -0.5625 0.40625 -0.9375q0.40625 -0.375 1.34375 -0.375l9.84375 0q0.9375 0 1.34375 0.375q0.40625 0.375 0.40625 0.96875q0 0.5625 -0.40625 0.9375q-0.40625 0.375 -1.34375 0.375l-4.34375 0l9.625 21.78125l1.15625 0l9.4375 -21.78125l-4.375 0q-0.9375 0 -1.34375 -0.375q-0.40625 -0.375 -0.40625 -0.96875q0 -0.5625 0.40625 -0.9375q0.40625 -0.375 1.34375 -0.375l9.875 0q0.96875 0 1.359375 0.375q0.390625 0.375 0.390625 0.96875q0 0.5625 -0.390625 0.9375q-0.390625 0.375 -1.359375 0.375l-2.65625 0l-10.65625 24.40625zm52.25003 -18.21875l-28.37503 15.8125q-0.6875 0.375 -1.03125 0.375q-0.53125 0 -0.921875 -0.390625q-0.390625 -0.390625 -0.390625 -0.921875q0 -0.78125 1.0625 -1.375l24.31253 -13.5l-24.28128 -13.5q-1.0625 -0.59375 -1.0625 -1.375q0 -0.53125 0.390625 -0.921875q0.390625 -0.390625 0.921875 -0.390625q0.34375 0 1.03125 0.375l28.34378 15.8125z" fill-rule="nonzero"></path><path fill="#000000" fill-opacity="0.0" d="m49.072178 130.61942l489.19687 0l0 151.21262l-489.19687 0z" fill-rule="nonzero"></path><path fill="#000000" d="m62.665928 204.4513l42.562504 -23.71875q1.03125 -0.5625 1.546875 -0.5625q0.796875 0 1.375 0.59375q0.59375 0.578125 0.59375 1.375q0 1.171875 -1.59375 2.0625l-36.46875 20.25l36.421875 20.25q1.59375 0.890625 1.59375 2.0625q0 0.796875 -0.59375 1.390625q-0.578125 0.578125 -1.375 0.578125q-0.515625 0 -1.546875 -0.5625l-42.51563 -23.71875zm94.828125 -10.6875q0 -1.359375 0.5625 -1.96875q0.5625 -0.609375 1.40625 -0.609375q0.890625 0 1.453125 0.609375q0.5625 0.609375 0.5625 2.0625l0 6.75q0 1.40625 -0.5625 2.015625q-0.5625 0.609375 -1.453125 0.609375q-0.796875 0 -1.34375 -0.515625q-0.53125 -0.515625 -0.625 -1.6875q-0.28125 -2.8125 -2.90625 -4.640625q-3.84375 -2.625 -10.171875 -2.625q-6.609375 0 -10.265625 2.671875q-2.765625 2.015625 -2.765625 4.5q0 2.8125 3.28125 4.6875q2.25 1.3125 8.53125 2.015625q8.203125 0.890625 11.390625 2.015625q4.546875 1.640625 6.765625 4.546875q2.234375 2.90625 2.234375 6.28125q0 5.015625 -4.828125 8.9375q-4.828125 3.90625 -14.15625 3.90625q-9.328125 0 -15.28125 -4.734375q0 1.59375 -0.1875 2.0625q-0.1875 0.46875 -0.6875 0.796875q-0.48436737 0.328125 -1.0937424 0.328125q-0.84375 0 -1.40625 -0.609375q-0.5625 -0.609375 -0.5625 -2.015625l0 -8.109375q0 -1.40625 0.53125 -2.015625q0.546875 -0.609375 1.4375 -0.609375q0.8437424 0 1.4218674 0.59375q0.59375 0.578125 0.59375 1.5625q0 2.15625 1.078125 3.609375q1.640625 2.25 5.21875 3.734375q3.59375 1.46875 8.796875 1.46875q7.6875 0 11.4375 -2.859375q3.75 -2.859375 3.75 -6.046875q0 -3.65625 -3.796875 -5.859375q-3.84375 -2.203125 -11.1875 -2.953125q-7.328125 -0.75 -10.515625 -1.96875q-3.1875 -1.21875 -4.96875 -3.65625q-1.7812424 -2.4375 -1.7812424 -5.25q0 -5.0625 4.9687424 -8.03125q4.96875 -2.984375 11.859375 -2.984375q8.15625 0 13.265625 3.984375zm61.03125 1.40625l0 -1.3125q0 -1.453125 0.5625 -2.0625q0.5625 -0.609375 1.40625 -0.609375q0.890625 0 1.453125 0.609375q0.5625 0.609375 0.5625 2.0625l0 8.90625q-0.046875 1.453125 -0.59375 2.0625q-0.53125 0.609375 -1.421875 0.609375q-0.796875 0 -1.34375 -0.53125q-0.53125 -0.546875 -0.625 -1.8125q-0.28125 -3.328125 -4.390625 -6.328125q-4.09375 -3.0 -11.03125 -3.0q-8.765625 0 -13.3125 5.484375q-4.546875 5.484375 -4.546875 12.5625q0 7.640625 5.015625 12.609375q5.015625 4.96875 12.984375 4.96875q4.59375 0 9.34375 -1.6875q4.765625 -1.6875 8.609375 -5.4375q0.984375 -0.9375 1.734375 -0.9375q0.796875 0 1.328125 0.546875q0.546875 0.53125 0.546875 1.328125q0 2.015625 -4.734375 5.109375q-7.640625 5.015625 -17.015625 5.015625q-9.515625 0 -15.640625 -6.0625q-6.109375 -6.078125 -6.109375 -15.40625q0 -9.515625 6.25 -15.796875q6.265625 -6.28125 15.78125 -6.28125q9.046875 0 15.1875 5.390625zm36.46875 -3.984375l0 9.9375q7.6875 -6.9375 11.5 -8.921875q3.828125 -2.0 7.0625 -2.0q3.515625 0 6.53125 2.375q3.03125 2.359375 3.03125 3.578125q0 0.890625 -0.59375 1.484375q-0.578125 0.578125 -1.46875 0.578125q-0.46875 0 -0.796875 -0.15625q-0.328125 -0.171875 -1.21875 -1.0625q-1.640625 -1.640625 -2.859375 -2.25q-1.21875 -0.609375 -2.390625 -0.609375q-2.578125 0 -6.21875 2.0625q-3.625 2.0625 -12.578125 10.078125l0 21.5625l17.4375 0q1.453125 0 2.0625 0.546875q0.609375 0.53125 0.609375 1.421875q0 0.84375 -0.609375 1.40625q-0.609375 0.5625 -2.0625 0.5625l-30.890625 0q-1.40625 0 -2.015625 -0.53125q-0.609375 -0.546875 -0.609375 -1.390625q0 -0.796875 0.578125 -1.328125q0.59375 -0.546875 2.046875 -0.546875l9.515625 0l0 -32.8125l-7.265625 0q-1.40625 0 -2.015625 -0.5625q-0.609375 -0.5625 -0.609375 -1.453125q0 -0.84375 0.578125 -1.40625q0.59375 -0.5625 2.046875 -0.5625l11.203125 0zm64.265625 -20.203125l0 10.171875l-5.8125 0l0 -10.171875l5.8125 0zm0.140625 20.203125l0 36.65625l15.46875 0q1.453125 0 2.0625 0.546875q0.609375 0.53125 0.609375 1.421875q0 0.84375 -0.609375 1.40625q-0.609375 0.5625 -2.0625 0.5625l-34.875 0q-1.40625 0 -2.015625 -0.5625q-0.609375 -0.5625 -0.609375 -1.40625q0 -0.890625 0.609375 -1.421875q0.609375 -0.546875 2.015625 -0.546875l15.46875 0l0 -32.671875l-11.484375 0q-1.40625 0 -2.046875 -0.5625q-0.625 -0.5625 -0.625 -1.40625q0 -0.890625 0.609375 -1.453125q0.609375 -0.5625 2.0625 -0.5625l15.421875 0zm40.6875 0l0 7.171875q3.515625 -4.265625 7.546875 -6.421875q4.03125 -2.15625 9.515625 -2.15625q5.8125 0 10.734375 2.71875q4.921875 2.71875 7.609375 7.578125q2.703125 4.84375 2.703125 10.1875q0 8.484375 -6.078125 14.515625q-6.0625 6.015625 -14.921875 6.015625q-10.546875 0 -17.109375 -8.578125l0 23.71875l9.5625 0q1.40625 0 2.015625 0.53125q0.609375 0.546875 0.609375 1.4375q0 0.84375 -0.609375 1.40625q-0.609375 0.5625 -2.015625 0.5625l-18.796875 0q-1.40625 0 -2.015625 -0.546875q-0.609375 -0.53125 -0.609375 -1.421875q0 -0.890625 0.609375 -1.4375q0.609375 -0.53125 2.015625 -0.53125l5.296875 0l0 -50.765625l-5.296875 0q-1.40625 0 -2.015625 -0.5625q-0.609375 -0.5625 -0.609375 -1.453125q0 -0.84375 0.609375 -1.40625q0.609375 -0.5625 2.015625 -0.5625l9.234375 0zm34.125 19.078125q0 -6.796875 -4.953125 -11.640625q-4.9375 -4.859375 -12.0625 -4.859375q-7.171875 0 -12.140625 4.875q-4.96875 4.875 -4.96875 11.625q0 6.796875 4.96875 11.671875q4.96875 4.875 12.140625 4.875q7.078125 0 12.046875 -4.84375q4.96875 -4.859375 4.96875 -11.703125zm30.234375 -19.078125l21.375 0q1.40625 0 2.015625 0.5625q0.609375 0.5625 0.609375 1.453125q0 0.84375 -0.609375 1.40625q-0.609375 0.5625 -2.015625 0.5625l-21.375 0l0 26.203125q0 3.421875 2.734375 5.71875q2.75 2.296875 8.046875 2.296875q3.984375 0 8.625 -1.1875q4.640625 -1.203125 7.21875 -2.703125q0.9375 -0.609375 1.546875 -0.609375q0.75 0 1.3125 0.59375q0.5625 0.578125 0.5625 1.375q0 0.703125 -0.609375 1.3125q-1.5 1.546875 -7.296875 3.359375q-5.78125 1.796875 -11.078125 1.796875q-6.890625 0 -10.96875 -3.234375q-4.078125 -3.234375 -4.078125 -8.71875l0 -26.203125l-7.265625 0q-1.40625 0 -2.015625 -0.5625q-0.609375 -0.5625 -0.609375 -1.453125q0 -0.84375 0.609375 -1.40625q0.609375 -0.5625 2.015625 -0.5625l7.265625 0l0 -11.625q0 -1.40625 0.5625 -2.015625q0.5625 -0.609375 1.40625 -0.609375q0.890625 0 1.453125 0.609375q0.5625 0.609375 0.5625 2.015625l0 11.625zm89.90628 13.265625l-42.56253 23.71875q-1.03125 0.5625 -1.546875 0.5625q-0.796875 0 -1.390625 -0.578125q-0.578125 -0.59375 -0.578125 -1.390625q0 -1.171875 1.59375 -2.0625l36.46875 -20.25l-36.421875 -20.25q-1.59375 -0.890625 -1.59375 -2.0625q0 -0.796875 0.578125 -1.375q0.59375 -0.59375 1.390625 -0.59375q0.515625 0 1.546875 0.5625l42.515656 23.71875z" fill-rule="nonzero"></path><path fill="#000000" fill-opacity="0.0" d="m2.6745408 45.11811l575.5905 0l0 100.7244l-575.5905 0z" fill-rule="nonzero"></path><path fill="#000000" d="m14.7370405 97.33936l28.375 -15.8125q0.6875 -0.375 1.03125 -0.375q0.53125 0 0.921875 0.390625q0.390625 0.390625 0.390625 0.921875q0 0.78125 -1.0625 1.375l-24.3125 13.5l24.28125 13.5q1.0625 0.59375 1.0625 1.375q0 0.53125 -0.390625 0.921875q-0.390625 0.390625 -0.921875 0.390625q-0.34375 0 -1.03125 -0.375l-28.34375 -15.8125zm55.874996 -21.0l0 36.59375l10.3125 0q0.96875 0 1.375 0.359375q0.40625 0.359375 0.40625 0.953125q0 0.5625 -0.40625 0.9375q-0.40625 0.375 -1.375 0.375l-23.249996 0q-0.9375 0 -1.34375 -0.375q-0.40625 -0.375 -0.40625 -0.9375q0 -0.59375 0.40625 -0.953125q0.40625 -0.359375 1.34375 -0.359375l10.312496 0l0 -33.9375l-7.562496 0q-0.9375 0 -1.359375 -0.375q-0.421875 -0.375 -0.421875 -0.96875q0 -0.5625 0.40625 -0.9375q0.40625 -0.375 1.375 -0.375l10.187496 0zm38.375 -1.3125l0 6.78125l-3.875 0l0 -6.78125l3.875 0zm0.09375 13.46875l0 24.4375l10.3125 0q0.96875 0 1.375 0.359375q0.40625 0.359375 0.40625 0.953125q0 0.5625 -0.40625 0.9375q-0.40625 0.375 -1.375 0.375l-23.25 0q-0.9375 0 -1.34375 -0.375q-0.40625 -0.375 -0.40625 -0.9375q0 -0.59375 0.40625 -0.953125q0.40625 -0.359375 1.34375 -0.359375l10.3125 0l0 -21.78125l-7.65625 0q-0.9375 0 -1.359375 -0.375q-0.421875 -0.375 -0.421875 -0.9375q0 -0.59375 0.40625 -0.96875q0.40625 -0.375 1.375 -0.375l10.28125 0zm28.531258 0l0 3.96875q2.75 -2.78125 4.96875 -3.84375q2.21875 -1.0625 5.0 -1.0625q3.0 0 5.46875 1.28125q1.75 0.9375 3.171875 3.109375q1.421875 2.171875 1.421875 4.453125l0 16.53125l2.21875 0q0.9375 0 1.34375 0.359375q0.40625 0.359375 0.40625 0.953125q0 0.5625 -0.40625 0.9375q-0.40625 0.375 -1.34375 0.375l-7.03125 0q-0.96875 0 -1.375 -0.375q-0.40625 -0.375 -0.40625 -0.9375q0 -0.59375 0.40625 -0.953125q0.40625 -0.359375 1.375 -0.359375l2.1875 0l0 -16.09375q0 -2.78125 -2.03125 -4.703125q-2.03125 -1.921875 -5.4375 -1.921875q-2.59375 0 -4.5 1.046875q-1.90625 1.046875 -5.4375 5.203125l0 16.46875l2.96875 0q0.9375 0 1.34375 0.359375q0.40625 0.359375 0.40625 0.953125q0 0.5625 -0.40625 0.9375q-0.40625 0.375 -1.34375 0.375l-8.5625 0q-0.9375 0 -1.34375 -0.375q-0.40625 -0.375 -0.40625 -0.9375q0 -0.59375 0.40625 -0.953125q0.40625 -0.359375 1.34375 -0.359375l2.96875 0l0 -21.78125l-2.21875 0q-0.9375 0 -1.34375 -0.375q-0.40625 -0.375 -0.40625 -0.96875q0 -0.5625 0.40625 -0.9375q0.40625 -0.375 1.34375 -0.375l4.84375 0zm41.5625 15.375l0 11.6875l-6.15625 0q-0.9375 0 -1.34375 -0.375q-0.40625 -0.375 -0.40625 -0.9375q0 -0.59375 0.40625 -0.953125q0.40625 -0.359375 1.34375 -0.359375l3.53125 0l0 -33.9375l-3.53125 0q-0.9375 0 -1.34375 -0.375q-0.40625 -0.375 -0.40625 -0.96875q0 -0.5625 0.40625 -0.9375q0.40625 -0.375 1.34375 -0.375l6.15625 0l0 24.1875l11.15625 -9.375l-1.34375 0q-0.9375 0 -1.34375 -0.375q-0.40625 -0.375 -0.40625 -0.9375q0 -0.59375 0.40625 -0.96875q0.40625 -0.375 1.34375 -0.375l8.40625 0q0.96875 0 1.375 0.375q0.40625 0.375 0.40625 0.96875q0 0.5625 -0.40625 0.9375q-0.40625 0.375 -1.375 0.375l-3.03125 0l-10.25 8.5625l12.96875 13.21875l3.03125 0q0.96875 0 1.375 0.359375q0.40625 0.359375 0.40625 0.953125q0 0.5625 -0.40625 0.9375q-0.40625 0.375 -1.375 0.375l-8.5 0q-0.9375 0 -1.34375 -0.375q-0.40625 -0.375 -0.40625 -0.9375q0 -0.59375 0.40625 -0.953125q0.40625 -0.359375 1.34375 -0.359375l1.84375 0l-11.28125 -11.59375l-3.0 2.53125zm59.875 -6.53125l-28.375 15.8125q-0.6875 0.375 -1.03125 0.375q-0.53125 0 -0.921875 -0.390625q-0.390625 -0.390625 -0.390625 -0.921875q0 -0.78125 1.0625 -1.375l24.3125 -13.5l-24.28125 -13.5q-1.0625 -0.59375 -1.0625 -1.375q0 -0.53125 0.390625 -0.921875q0.390625 -0.390625 0.921875 -0.390625q0.34375 0 1.03125 0.375l28.34375 15.8125z" fill-rule="nonzero"></path><path fill="#000000" fill-opacity="0.0" d="m329.07874 3.4225721l222.77167 0l0 72.409454l-222.77167 0z" fill-rule="nonzero"></path><path fill="#000000" d="m340.0006 39.431946l17.734375 -9.875q0.421875 -0.234375 0.640625 -0.234375q0.328125 0 0.5625 0.25q0.25 0.234375 0.25 0.5625q0 0.484375 -0.65625 0.859375l-15.203125 8.4375l15.1875 8.4375q0.65625 0.375 0.65625 0.859375q0 0.328125 -0.25 0.578125q-0.234375 0.25 -0.5625 0.25q-0.21875 0 -0.65625 -0.234375l-17.703125 -9.890625zm28.691406 -13.125l0 10.09375q1.5625 -1.6875 2.984375 -2.375q1.4375 -0.703125 3.21875 -0.703125q1.921875 0 3.25 0.671875q1.34375 0.671875 2.234375 2.078125q0.90625 1.390625 0.90625 2.9375l0 10.171875l1.828125 0q0.609375 0 0.84375 0.234375q0.25 0.21875 0.25 0.578125q0 0.359375 -0.25 0.59375q-0.234375 0.234375 -0.84375 0.234375l-5.328125 0q-0.609375 0 -0.859375 -0.234375q-0.25 -0.234375 -0.25 -0.59375q0 -0.359375 0.25 -0.578125q0.25 -0.234375 0.859375 -0.234375l1.84375 0l0 -10.0625q0 -1.78125 -1.28125 -2.96875q-1.28125 -1.1875 -3.5625 -1.1875q-1.796875 0 -3.078125 0.875q-0.90625 0.625 -3.015625 2.953125l0 10.390625l1.84375 0q0.59375 0 0.84375 0.234375q0.25 0.21875 0.25 0.578125q0 0.359375 -0.25 0.59375q-0.25 0.234375 -0.84375 0.234375l-5.34375 0q-0.59375 0 -0.84375 -0.234375q-0.25 -0.234375 -0.25 -0.59375q0 -0.359375 0.25 -0.578125q0.25 -0.234375 0.84375 -0.234375l1.859375 0l0 -21.21875l-2.21875 0q-0.578125 0 -0.84375 -0.234375q-0.25 -0.234375 -0.25 -0.59375q0 -0.359375 0.25 -0.59375q0.265625 -0.234375 0.84375 -0.234375l3.859375 0zm38.26953 16.453125l-16.71875 0q0.4375 3.171875 2.671875 5.125q2.234375 1.9375 5.53125 1.9375q1.84375 0 3.84375 -0.59375q2.015625 -0.609375 3.296875 -1.609375q0.359375 -0.296875 0.640625 -0.296875q0.3125 0 0.546875 0.25q0.234375 0.234375 0.234375 0.578125q0 0.328125 -0.3125 0.640625q-0.9375 0.96875 -3.328125 1.828125q-2.390625 0.84375 -4.921875 0.84375q-4.21875 0 -7.046875 -2.765625q-2.8125 -2.765625 -2.8125 -6.6875q0 -3.578125 2.640625 -6.125q2.65625 -2.5625 6.5625 -2.5625q4.015625 0 6.609375 2.625q2.609375 2.625 2.5625 6.8125zm-1.65625 -1.671875q-0.484375 -2.703125 -2.5625 -4.40625q-2.078125 -1.703125 -4.953125 -1.703125q-2.875 0 -4.953125 1.6875q-2.0625 1.671875 -2.5625 4.421875l15.03125 0zm21.503906 9.734375l0 -2.359375q-3.578125 3.0 -7.640625 3.0q-2.9375 0 -4.609375 -1.484375q-1.65625 -1.5 -1.65625 -3.671875q0 -2.375 2.1875 -4.15625q2.1875 -1.78125 6.390625 -1.78125q1.125 0 2.453125 0.15625q1.328125 0.140625 2.875 0.453125l0 -2.65625q0 -1.34375 -1.25 -2.34375q-1.25 -1.0 -3.75 -1.0q-1.90625 0 -5.375 1.109375q-0.625 0.203125 -0.796875 0.203125q-0.3125 0 -0.546875 -0.234375q-0.21875 -0.234375 -0.21875 -0.59375q0 -0.328125 0.203125 -0.515625q0.265625 -0.296875 2.203125 -0.8125q3.046875 -0.8125 4.609375 -0.8125q3.109375 0 4.84375 1.53125q1.734375 1.53125 1.734375 3.46875l0 10.859375l2.1875 0q0.609375 0 0.859375 0.234375q0.265625 0.21875 0.265625 0.578125q0 0.359375 -0.265625 0.59375q-0.25 0.234375 -0.859375 0.234375l-3.84375 0zm0 -8.171875q-1.15625 -0.328125 -2.453125 -0.484375q-1.28125 -0.15625 -2.703125 -0.15625q-3.578125 0 -5.578125 1.546875q-1.53125 1.15625 -1.53125 2.75q0 1.484375 1.15625 2.5q1.171875 1.015625 3.390625 1.015625q2.140625 0 3.953125 -0.84375q1.828125 -0.859375 3.765625 -2.703125l0 -3.625zm27.332031 -16.34375l0 22.875l2.1875 0q0.59375 0 0.84375 0.234375q0.265625 0.21875 0.265625 0.578125q0 0.359375 -0.265625 0.59375q-0.25 0.234375 -0.84375 0.234375l-3.859375 0l0 -3.265625q-2.84375 3.90625 -7.234375 3.90625q-2.234375 0 -4.28125 -1.171875q-2.03125 -1.1875 -3.21875 -3.375q-1.171875 -2.1875 -1.171875 -4.515625q0 -2.34375 1.171875 -4.515625q1.1875 -2.1875 3.21875 -3.375q2.046875 -1.1875 4.296875 -1.1875q4.296875 0 7.21875 3.90625l0 -9.265625l-2.1875 0q-0.59375 0 -0.859375 -0.234375q-0.25 -0.234375 -0.25 -0.59375q0 -0.359375 0.25 -0.59375q0.265625 -0.234375 0.859375 -0.234375l3.859375 0zm-1.671875 16.09375q0 -3.125 -2.109375 -5.265625q-2.109375 -2.15625 -5.015625 -2.15625q-2.921875 0 -5.03125 2.15625q-2.109375 2.140625 -2.109375 5.265625q0 3.109375 2.109375 5.265625q2.109375 2.15625 5.03125 2.15625q2.90625 0 5.015625 -2.15625q2.109375 -2.15625 2.109375 -5.265625zm27.722656 -2.96875l-17.734375 9.890625q-0.4375 0.234375 -0.640625 0.234375q-0.34375 0 -0.59375 -0.25q-0.234375 -0.25 -0.234375 -0.578125q0 -0.484375 0.671875 -0.859375l15.1875 -8.4375l-15.171875 -8.4375q-0.671875 -0.375 -0.671875 -0.859375q0 -0.328125 0.25 -0.5625q0.25 -0.25 0.578125 -0.25q0.21875 0 0.640625 0.234375l17.71875 9.875z" fill-rule="nonzero"></path><path fill="#000000" fill-opacity="0.0" d="m12.795276 261.42258l222.77165 0l0 72.409454l-222.77165 0z" fill-rule="nonzero"></path><path fill="#000000" d="m23.71715 297.43195l17.734377 -9.875q0.421875 -0.234375 0.640625 -0.234375q0.328125 0 0.5625 0.25q0.25 0.234375 0.25 0.5625q0 0.484375 -0.65625 0.859375l-15.203127 8.4375l15.187502 8.4375q0.65625 0.375 0.65625 0.859375q0 0.328125 -0.25 0.578125q-0.234375 0.25 -0.5625 0.25q-0.21875 0 -0.65625 -0.234375l-17.703127 -9.890625zm28.691408 -13.125l0 10.09375q1.5625 -1.6875 2.984375 -2.375q1.4375 -0.703125 3.21875 -0.703125q1.921875 0 3.25 0.671875q1.34375 0.671875 2.2343712 2.078125q0.90625 1.390625 0.90625 2.9375l0 10.171875l1.828125 0q0.609375 0 0.84375 0.234375q0.25 0.21875 0.25 0.578125q0 0.359375 -0.25 0.59375q-0.234375 0.234375 -0.84375 0.234375l-5.328121 0q-0.609375 0 -0.859375 -0.234375q-0.25 -0.234375 -0.25 -0.59375q0 -0.359375 0.25 -0.578125q0.25 -0.234375 0.859375 -0.234375l1.84375 0l0 -10.0625q0 -1.78125 -1.28125 -2.96875q-1.28125 -1.1875 -3.5625 -1.1875q-1.796875 0 -3.078125 0.875q-0.90625 0.625 -3.015625 2.953125l0 10.390625l1.84375 0q0.59375 0 0.84375 0.234375q0.25 0.21875 0.25 0.578125q0 0.359375 -0.25 0.59375q-0.25 0.234375 -0.84375 0.234375l-5.34375 0q-0.59375 0 -0.84375 -0.234375q-0.25 -0.234375 -0.25 -0.59375q0 -0.359375 0.25 -0.578125q0.25 -0.234375 0.84375 -0.234375l1.859375 0l0 -21.21875l-2.21875 0q-0.578125 0 -0.84375 -0.234375q-0.25 -0.234375 -0.25 -0.59375q0 -0.359375 0.25 -0.59375q0.265625 -0.234375 0.84375 -0.234375l3.859375 0zm38.269527 16.453125l-16.71875 0q0.4375 3.171875 2.671875 5.125q2.234375 1.9375 5.53125 1.9375q1.84375 0 3.84375 -0.59375q2.015625 -0.609375 3.296875 -1.609375q0.359375 -0.296875 0.640625 -0.296875q0.3125 0 0.546875 0.25q0.234375 0.234375 0.234375 0.578125q0 0.328125 -0.3125 0.640625q-0.9375 0.96875 -3.328125 1.828125q-2.390625 0.84375 -4.921875 0.84375q-4.21875 0 -7.046875 -2.765625q-2.8125 -2.765625 -2.8125 -6.6875q0 -3.578125 2.640625 -6.125q2.65625 -2.5625 6.5625 -2.5625q4.015625 0 6.609375 2.625q2.609375 2.625 2.5625 6.8125zm-1.65625 -1.671875q-0.484375 -2.703125 -2.5625 -4.40625q-2.078125 -1.703125 -4.953125 -1.703125q-2.875 0 -4.953125 1.6875q-2.0625 1.671875 -2.5625 4.421875l15.03125 0zm21.503906 9.734375l0 -2.359375q-3.578125 3.0 -7.640625 3.0q-2.9375 0 -4.609375 -1.484375q-1.65625 -1.5 -1.65625 -3.671875q0 -2.375 2.1875 -4.15625q2.1875 -1.78125 6.390625 -1.78125q1.125 0 2.453125 0.15625q1.328125 0.140625 2.875 0.453125l0 -2.65625q0 -1.34375 -1.25 -2.34375q-1.25 -1.0 -3.75 -1.0q-1.90625 0 -5.375 1.109375q-0.625 0.203125 -0.796875 0.203125q-0.3125 0 -0.546875 -0.234375q-0.21875 -0.234375 -0.21875 -0.59375q0 -0.328125 0.203125 -0.515625q0.265625 -0.296875 2.203125 -0.8125q3.046875 -0.8125 4.609375 -0.8125q3.109375 0 4.84375 1.53125q1.734375 1.53125 1.734375 3.46875l0 10.859375l2.1875 0q0.609375 0 0.859375 0.234375q0.265625 0.21875 0.265625 0.578125q0 0.359375 -0.265625 0.59375q-0.25 0.234375 -0.859375 0.234375l-3.84375 0zm0 -8.171875q-1.15625 -0.328125 -2.453125 -0.484375q-1.28125 -0.15625 -2.703125 -0.15625q-3.578125 0 -5.578125 1.546875q-1.53125 1.15625 -1.53125 2.75q0 1.484375 1.15625 2.5q1.171875 1.015625 3.390625 1.015625q2.140625 0 3.953125 -0.84375q1.828125 -0.859375 3.765625 -2.703125l0 -3.625zm27.332031 -16.34375l0 22.875l2.1875 0q0.59375 0 0.84375 0.234375q0.265625 0.21875 0.265625 0.578125q0 0.359375 -0.265625 0.59375q-0.25 0.234375 -0.84375 0.234375l-3.859375 0l0 -3.265625q-2.84375 3.90625 -7.234375 3.90625q-2.234375 0 -4.28125 -1.171875q-2.03125 -1.1875 -3.21875 -3.375q-1.171875 -2.1875 -1.171875 -4.515625q0 -2.34375 1.171875 -4.515625q1.1875 -2.1875 3.21875 -3.375q2.046875 -1.1875 4.296875 -1.1875q4.296875 0 7.21875 3.90625l0 -9.265625l-2.1875 0q-0.59375 0 -0.859375 -0.234375q-0.25 -0.234375 -0.25 -0.59375q0 -0.359375 0.25 -0.59375q0.265625 -0.234375 0.859375 -0.234375l3.859375 0zm-1.671875 16.09375q0 -3.125 -2.109375 -5.265625q-2.109375 -2.15625 -5.015625 -2.15625q-2.921875 0 -5.03125 2.15625q-2.109375 2.140625 -2.109375 5.265625q0 3.109375 2.109375 5.265625q2.109375 2.15625 5.03125 2.15625q2.90625 0 5.015625 -2.15625q2.109375 -2.15625 2.109375 -5.265625zm27.722656 -2.96875l-17.734375 9.890625q-0.4375 0.234375 -0.640625 0.234375q-0.34375 0 -0.59375 -0.25q-0.234375 -0.25 -0.234375 -0.578125q0 -0.484375 0.671875 -0.859375l15.1875 -8.4375l-15.171875 -8.4375q-0.671875 -0.375 -0.671875 -0.859375q0 -0.328125 0.25 -0.5625q0.25 -0.25 0.578125 -0.25q0.21875 0 0.640625 0.234375l17.71875 9.875z" fill-rule="nonzero"></path></g></svg>

